# xmcd
#
# Track frame offsets:
#	183
#	16843
#	38803
#	55163
#	73670
#	90618
#	106473
#	121230
#	139408
#	154443
#
# Disc length: 2346 seconds
#
# Revision: 4
# Processed by: cddbd v1.5.2PL0 Copyright (c) Steve Scherf et al.
# Submitted via: audiograbber 1.83.01
#
DISCID=8709280a
DTITLE=Emmylou Harris - Luxury Liner
DYEAR=1977
DGENRE=CountryRock
TTITLE0=Luxury Liner
TTITLE1=Pancho and Lefty
TTITLE2=Making Believe
TTITLE3=You're Supposed To Be Feeling Good
TTITLE4=I'll Be Your San Antone Rose
TTITLE5=(You Never Can Tell) C'est La Vie
TTITLE6=When I Stop Dreaming
TTITLE7=Hello Stranger
TTITLE8=She
TTITLE9=Tulsa Queen
EXTD=
EXTT0=
EXTT1=
EXTT2=
EXTT3=
EXTT4=
EXTT5=
EXTT6=
EXTT7=
EXTT8=
EXTT9=
PLAYORDER=
